<svg version="1.1" xmlns="http://www.w3.org/2000/svg" xmlns:xlink="http://www.w3.org/1999/xlink" width="430.73789" height="358.94823" viewBox="0,0,430.73789,358.94823"><g transform="translate(-24.63106,-0.52589)"><g data-paper-data="{&quot;isPaintingLayer&quot;:true}" fill-rule="nonzero" stroke="none" stroke-width="1" stroke-linecap="butt" stroke-linejoin="miter" stroke-miterlimit="10" stroke-dasharray="" stroke-dashoffset="0" style="mix-blend-mode: normal"><g><path d="M431.43902,161.76545v149.84891c0,26.43055 -21.42922,47.85976 -47.85976,47.85976h-287.15857c-26.43055,0 -47.85976,-21.42922 -47.85976,-47.85976v-149.84891c-14.99207,-16.75093 -23.92989,-37.27079 -23.92989,-59.53754c0,-54.53617 53.06451,-98.91417 119.64941,-101.45075v-0.25128h191.43906v0.25128c66.58489,2.53658 119.64941,46.91452 119.64941,101.45075c0,22.26676 -8.9378,42.78663 -23.92989,59.53754z" data-paper-data="{&quot;index&quot;:null}" fill="#1f1f1f"/><path d="M251.96493,161.76545h179.4741v17.94742h-179.4741z" data-paper-data="{&quot;index&quot;:null}" fill="#222222"/><path d="M251.96493,152.2294v147.42004c0,19.8259 -16.06892,35.89485 -35.89481,35.89485h-107.68447c-19.82591,0 -35.89485,-16.06892 -35.89485,-35.89485v-147.3602c-14.9083,-13.53234 -23.92985,-30.97723 -23.92985,-50.06132c0,-42.95414 45.53856,-77.77212 101.70198,-77.77212c2.0101,0 27.93813,0.04787 29.91237,0.13163c53.38758,2.36906 95.71953,36.22983 95.71953,77.64049c0,19.06016 -9.04551,36.46913 -23.92989,50.00149z" data-paper-data="{&quot;index&quot;:null}" fill="#1d1d1d"/></g></g></g></svg>