<svg version="1.1" xmlns="http://www.w3.org/2000/svg" xmlns:xlink="http://www.w3.org/1999/xlink" width="124.65421" height="103.87847" viewBox="0,0,124.65421,103.87847"><g transform="translate(-177.6729,-128.06077)"><g data-paper-data="{&quot;isPaintingLayer&quot;:true}" fill-rule="nonzero" stroke-linejoin="miter" stroke-miterlimit="10" stroke-dasharray="" stroke-dashoffset="0" style="mix-blend-mode: normal"><path d="M295.40189,174.72297v43.36581c0,7.64893 -6.20156,13.85046 -13.85046,13.85046h-83.10283c-7.64893,0 -13.85046,-6.20156 -13.85046,-13.85046v-43.36581c-4.33865,-4.84765 -6.92525,-10.78605 -6.92525,-17.22997c0,-15.7826 15.35672,-28.62547 34.62617,-29.35952v-0.07271h55.40187v0.07271c19.26945,0.73409 34.62617,13.57692 34.62617,29.35952c0,6.44392 -2.58656,12.38232 -6.92525,17.22997z" fill="#d99e82" stroke="none" stroke-width="1" stroke-linecap="butt"/><path d="M243.46261,174.72297h51.93925v5.19394h-51.93925z" fill="#cc927a" stroke="none" stroke-width="1" stroke-linecap="butt"/><path d="M243.46261,171.96325v42.6629c0,5.73757 -4.6503,10.38784 -10.38784,10.38784h-31.16354c-5.73757,0 -10.38784,-4.6503 -10.38784,-10.38784v-42.64561c-4.31443,-3.91621 -6.92525,-8.96473 -6.92525,-14.48758c0,-12.4308 13.17871,-22.50702 29.43223,-22.50702c0.58171,0 8.08522,0.01385 8.65656,0.03808c15.45021,0.68561 27.70095,10.48481 27.70095,22.46891c0,5.51596 -2.61775,10.55407 -6.92525,14.47028z" fill="#ffe8b6" stroke="none" stroke-width="1" stroke-linecap="butt"/><path d="M243.46264,171.96325v42.6629c0,5.73757 -4.6503,10.38784 -10.38784,10.38784h-31.16354c-5.73757,0 -10.38784,-4.6503 -10.38784,-10.38784v-42.64561c-1.34351,-1.21949 3.29939,-7.84511 8.18443,-8.61187c9.59024,-0.60566 28.79511,-1.52593 35.80723,-0.13543c5.22526,1.03616 9.15653,7.63084 7.94759,8.72996z" fill="#ffffff" stroke="none" stroke-width="1" stroke-linecap="butt"/><path d="M195.40077,154.73748c0,-2.35386 1.90819,-4.26205 4.26205,-4.26205c2.35386,0 4.26205,1.90819 4.26205,4.26205c0,2.35386 -1.90819,4.26205 -4.26205,4.26205c-2.35386,0 -4.26205,-1.90819 -4.26205,-4.26205z" fill="#000000" stroke="none" stroke-width="0" stroke-linecap="butt"/><path d="M216.40656,154.73748c0,-2.35386 1.90819,-4.26205 4.26205,-4.26205c2.35386,0 4.26205,1.90819 4.26205,4.26205c0,2.35386 -1.90819,4.26205 -4.26205,4.26205c-2.35386,0 -4.26205,-1.90819 -4.26205,-4.26205z" fill="#000000" stroke="none" stroke-width="0" stroke-linecap="butt"/><path d="M201.48941,145.45235c0,-1.76539 1.43114,-3.19653 3.19653,-3.19653c1.76539,0 3.19653,1.43114 3.19653,3.19653c0,1.76539 -1.43114,3.19653 -3.19653,3.19653c-1.76539,0 -3.19653,-1.43114 -3.19653,-3.19653z" fill="#ffffff" stroke="none" stroke-width="0" stroke-linecap="butt"/><path d="M213.9711,145.45235c0,-1.76539 1.43114,-3.19653 3.19653,-3.19653c1.76539,0 3.19653,1.43114 3.19653,3.19653c0,1.76539 -1.43114,3.19653 -3.19653,3.19653c-1.76539,0 -3.19653,-1.43114 -3.19653,-3.19653z" fill="#ffffff" stroke="none" stroke-width="0" stroke-linecap="butt"/><path d="M211.33964,167.58152c-0.31548,0.45118 -0.81972,0.44267 -1.11966,-0.01902l-5.52778,-5.61596c-0.70487,-1.13706 0.37726,-2.05454 1.33303,-2.12201h9.84689c1.15822,0 1.82242,1.17889 1.17,2.03552z" fill="#000000" stroke="#0f9871" stroke-width="0" stroke-linecap="butt"/><g fill="#ffe8b6" stroke="#000000" stroke-width="0" stroke-linecap="round"><path d="M246.74218,129.98998c2.55238,3.61352 0.36079,17.43355 -1.1313,17.44617c-1.09715,0.00927 -8.77365,-6.8585 -9.16873,-8.23595c-0.55008,-1.91794 7.23879,-10.57626 10.30003,-9.21022z"/><path d="M197.96038,139.2002c-0.39508,1.37745 -8.07158,8.24525 -9.16873,8.23595c-1.49209,-0.01261 -3.68368,-13.83264 -1.1313,-17.44617c3.06124,-1.36604 10.85011,7.29227 10.30003,9.21022z" data-paper-data="{&quot;index&quot;:null}"/></g><path d="M210.94732,173.63918c0,0 0.8385,5.6979 -4.84024,5.28029c-4.63152,-0.3406 -4.25354,-5.28029 -4.25354,-5.28029" fill="none" stroke="#000000" stroke-width="1" stroke-linecap="round"/><path d="M220.04114,173.63918c0,0 0.8385,5.69787 -4.84024,5.28029c-4.63152,-0.3406 -4.25354,-5.28029 -4.25354,-5.28029v-10.98647" fill="none" stroke="#000000" stroke-width="1" stroke-linecap="round"/></g></g></svg>