<svg version="1.1" xmlns="http://www.w3.org/2000/svg" xmlns:xlink="http://www.w3.org/1999/xlink" width="431.48827" height="359.57355" viewBox="0,0,431.48827,359.57355"><g transform="translate(-24.25586,-0.21323)"><g data-paper-data="{&quot;isPaintingLayer&quot;:true}" fill-rule="nonzero" stroke="none" stroke-width="1" stroke-linecap="butt" stroke-linejoin="miter" stroke-miterlimit="10" stroke-dasharray="" stroke-dashoffset="0" style="mix-blend-mode: normal"><g><path d="M431.77253,161.73368v150.10996c0,26.4766 -21.46655,47.94313 -47.94313,47.94313h-287.65883c-26.4766,0 -47.94313,-21.46655 -47.94313,-47.94313v-150.10996c-15.01819,-16.78011 -23.97157,-37.33572 -23.97157,-59.64126c0,-54.63118 53.15695,-99.08648 119.85785,-101.62748v-0.25172h191.77256v0.25172c66.70088,2.541 119.85785,46.99625 119.85785,101.62748c0,22.30555 -8.95337,42.86117 -23.97157,59.64126z" data-paper-data="{&quot;index&quot;:null}" fill="#1f7d33"/><path d="M251.98577,161.73368h179.78676v17.97869h-179.78676z" data-paper-data="{&quot;index&quot;:null}" fill="#0f5f18"/><path d="M251.98577,152.18102v147.67685c0,19.86043 -16.09691,35.95738 -35.95734,35.95738h-107.87207c-19.86045,0 -35.95738,-16.09691 -35.95738,-35.95738v-147.61692c-14.93427,-13.55591 -23.97154,-31.0312 -23.97154,-50.14853c0,-43.02897 45.61789,-77.90761 101.87915,-77.90761c2.0136,0 27.9868,0.04796 29.96448,0.13186c53.48059,2.37318 95.88628,36.29295 95.88628,77.77575c0,19.09337 -9.06126,36.53266 -23.97157,50.08859z" data-paper-data="{&quot;index&quot;:null}" fill="#50c940"/></g></g></g></svg>